# xmcd CD database file
#
# Track frame offsets:
#	150
#	14282
#	27225
#	41287
#	57985
#	72657
#	85635
#	100557
#	118147
#	128900
#
# Disc length: 1970 seconds
#
# Revision: 0
# Processed by: cddbd v1.5.1PL0 Copyright (c) Steve Scherf et al.
# Submitted via: CDex 1.51
#
DISCID=7c07b00a
DTITLE=WORD - neutral
DYEAR=2002
DGENRE=Rock
TTITLE0=途切れざる光
TTITLE1=Echo
TTITLE2=飛輪
TTITLE3=ストロボ
TTITLE4=rehabili
TTITLE5=WORD.1
TTITLE6=197秒 1人だけの危機
TTITLE7=サンカク
TTITLE8=否定は音のサイド側
TTITLE9=間と間
EXTD=YEAR: 2002
EXTT0=
EXTT1=
EXTT2=
EXTT3=
EXTT4=
EXTT5=
EXTT6=
EXTT7=
EXTT8=
EXTT9=
PLAYORDER=
